<svg width="670" height="255" viewBox="0 0 670 255" fill="none" xmlns="http://www.w3.org/2000/svg">
<path d="M114 69C114 63.2227 112.231 58.377 109.85 55.2012C107.47 52.0284 104.946 51 103 51C101.054 51 98.53 52.0284 96.1504 55.2012C93.7686 58.377 92 63.2227 92 69C92 74.7773 93.7686 79.623 96.1504 82.7988C98.53 85.9716 101.054 87 103 87V97C91.402 97 82 84.464 82 69C82 53.536 91.402 41 103 41C114.598 41 124 53.536 124 69C124 84.464 114.598 97 103 97V87C104.946 87 107.47 85.9716 109.85 82.7988C112.231 79.623 114 74.7773 114 69Z" fill="white"/>
<path d="M166 69C166 63.2227 164.231 58.377 161.85 55.2012C159.47 52.0284 156.946 51 155 51C153.054 51 150.53 52.0284 148.15 55.2012C145.769 58.377 144 63.2227 144 69C144 74.7773 145.769 79.623 148.15 82.7988C150.53 85.9716 153.054 87 155 87V97C143.402 97 134 84.464 134 69C134 53.536 143.402 41 155 41C166.598 41 176 53.536 176 69C176 84.464 166.598 97 155 97V87C156.946 87 159.47 85.9716 161.85 82.7988C164.231 79.623 166 74.7773 166 69Z" fill="white"/>
<path d="M206 100.5C206 92.6857 200.837 89 197.5 89C194.163 89 189 92.6857 189 100.5C189 108.314 194.163 112 197.5 112V122C187.283 122 179 112.374 179 100.5C179 88.6259 187.283 79 197.5 79C207.717 79 216 88.6259 216 100.5C216 112.374 207.717 122 197.5 122V112C200.837 112 206 108.314 206 100.5Z" fill="white"/>
<path d="M68 101C68 92.6791 62.6409 89 59.5 89C56.3591 89 51 92.6791 51 101C51 109.321 56.3591 113 59.5 113V123C49.2827 123 41 113.15 41 101C41 88.8497 49.2827 79 59.5 79C69.7173 79 78 88.8497 78 101C78 113.15 69.7173 123 59.5 123V113C62.6409 113 68 109.321 68 101Z" fill="white"/>
<path d="M66 154.5C66 151.162 63.4664 149 61 149C58.5336 149 56 151.162 56 154.5C56 157.838 58.5336 160 61 160V169C53.268 169 47 162.508 47 154.5C47 146.492 53.268 140 61 140C68.732 140 75 146.492 75 154.5C75 162.508 68.732 169 61 169V160C63.4664 160 66 157.838 66 154.5Z" fill="white"/>
<path d="M134 208.5C134 205.162 131.466 203 129 203C126.534 203 124 205.162 124 208.5C124 211.838 126.534 214 129 214V223C121.268 223 115 216.508 115 208.5C115 200.492 121.268 194 129 194C136.732 194 143 200.492 143 208.5C143 216.508 136.732 223 129 223V214C131.466 214 134 211.838 134 208.5Z" fill="white"/>
<path d="M245 127.5C245 62.6065 192.393 10 127.5 10C62.6065 10 10 62.6065 10 127.5C10 192.393 62.6065 245 127.5 245V255C57.0837 255 0 197.916 0 127.5C0 57.0837 57.0837 0 127.5 0C197.916 0 255 57.0837 255 127.5C255 197.916 197.916 255 127.5 255V245C192.393 245 245 192.393 245 127.5Z" fill="white"/>
<path d="M165.688 238.172V222.896C165.689 215.886 168.201 209.108 172.77 203.791L188.674 185.284C191.587 181.895 193.188 177.574 193.188 173.104V118.5H203.812V173.104C203.811 180.114 201.299 186.892 196.73 192.209L180.826 210.716C177.913 214.105 176.312 218.426 176.312 222.896V238.172C176.311 241.392 175.033 244.479 172.756 246.756L165.244 239.244C165.528 238.96 165.688 238.574 165.688 238.172Z" fill="white"/>
<path d="M83 235.188C82.2755 235.188 81.6885 235.775 81.6885 236.5V222.726C81.6884 219.687 80.578 216.753 78.5664 214.476L62.5312 196.323C57.7995 190.966 55.1885 184.065 55.1885 176.918V165.5H65.8115V176.918C65.8115 181.475 67.4773 185.875 70.4941 189.29L86.5283 207.442C90.255 211.661 92.3114 217.096 92.3115 222.726V236.5C92.3115 241.643 88.1428 245.812 83 245.812V235.188Z" fill="white"/>
<path d="M134.312 220.5V247H123.688V220.5H134.312Z" fill="white"/>
<path d="M130.849 104.001C162.753 104.297 187.121 164.687 166.205 181.33L165.622 181.783C153.668 190.864 148.036 181.632 131.65 181.337L130.849 181.33C113.842 181.33 107.621 191.512 95.2802 181.807L94.6884 181.33C73.7588 164.065 98.8072 103.704 130.849 104.001ZM130.756 114.001C126.012 113.957 120.756 116.157 115.435 120.956C110.135 125.737 105.41 132.565 102.042 140.142C98.6645 147.739 96.9279 155.463 97.0019 161.805C97.0773 168.271 98.9469 171.88 101.052 173.616C103.278 175.453 104.539 175.824 105.119 175.933C105.753 176.051 106.661 176.061 108.656 175.566C112.169 174.693 120.582 171.33 130.849 171.33C141.092 171.33 149.217 174.518 152.672 175.362C154.587 175.83 155.427 175.815 156.01 175.708C156.553 175.608 157.773 175.26 159.978 173.505C161.984 171.909 163.867 168.468 163.993 162.069C164.117 155.805 162.458 148.118 159.16 140.514C155.872 132.933 151.227 126.061 145.982 121.208C140.714 116.333 135.484 114.045 130.756 114.001Z" fill="white"/>
<path d="M617.492 211.221L633.615 121.909C633.7 121.571 633.911 121.401 634.25 121.401H653.103C653.441 121.401 653.653 121.571 653.737 121.909L669.226 211.221C669.268 211.644 669.099 211.855 668.718 211.855H654.309C653.885 211.855 653.653 211.644 653.61 211.221L652.214 201.699H634.504L633.107 211.221C633.065 211.644 632.854 211.855 632.473 211.855H618C617.661 211.855 617.492 211.644 617.492 211.221ZM642.946 151.299L637.106 187.798H649.611L644.279 151.299L643.518 146.475L642.946 151.299Z" fill="white"/>
<path d="M605.432 211.855H590.769C590.388 211.855 590.197 211.644 590.197 211.221V137.08H573.312C572.889 137.08 572.678 136.868 572.678 136.445L572.805 121.909C572.805 121.571 572.974 121.401 573.312 121.401H622.697C623.163 121.401 623.396 121.571 623.396 121.909V136.445C623.396 136.868 623.226 137.08 622.888 137.08H605.812L605.939 211.221C605.939 211.644 605.77 211.855 605.432 211.855Z" fill="white"/>
<path d="M525.705 211.221L541.828 121.909C541.913 121.571 542.124 121.401 542.463 121.401H561.315C561.654 121.401 561.866 121.571 561.95 121.909L577.438 211.221C577.481 211.644 577.312 211.855 576.931 211.855H562.521C562.098 211.855 561.866 211.644 561.823 211.221L560.427 201.699H542.717L541.32 211.221C541.278 211.644 541.066 211.855 540.686 211.855H526.213C525.874 211.855 525.705 211.644 525.705 211.221ZM551.159 151.299L545.319 187.798H557.824L552.492 151.299L551.73 146.475L551.159 151.299Z" fill="white"/>
<path d="M496.252 211.855H472.956C472.618 211.855 472.448 211.644 472.448 211.221L472.702 121.909C472.702 121.571 472.871 121.401 473.21 121.401H498.22C503.086 121.401 507.508 122.586 511.486 124.956C515.38 127.326 518.448 130.479 520.69 134.414C522.933 138.307 524.055 142.539 524.055 147.109C524.055 150.833 523.208 154.303 521.516 157.52C519.823 160.736 517.813 163.338 515.485 165.327C517.982 167.824 519.929 170.723 521.325 174.023C522.722 177.324 523.42 180.794 523.42 184.434C523.42 189.469 522.214 194.061 519.802 198.208C517.347 202.355 514.068 205.677 509.963 208.174C505.858 210.628 501.288 211.855 496.252 211.855ZM498.22 136.826H488.317V157.266H498.22C501.224 157.266 503.658 156.208 505.52 154.092C507.382 151.934 508.312 149.606 508.312 147.109C508.312 144.359 507.318 141.968 505.329 139.937C503.34 137.863 500.97 136.826 498.22 136.826ZM496.252 173.008H488.317L488.19 195.986H496.252C499.383 195.986 502.071 194.844 504.313 192.559C506.556 190.273 507.678 187.565 507.678 184.434C507.678 181.302 506.556 178.615 504.313 176.372C502.071 174.129 499.383 173.008 496.252 173.008Z" fill="white"/>
<path d="M392.531 211.855H379.519C378.841 211.855 378.503 211.559 378.503 210.967L378.376 122.417C378.376 121.74 378.715 121.401 379.392 121.401H391.135L413.098 172.627L412.463 122.417C412.463 121.74 412.844 121.401 413.605 121.401H426.491C426.999 121.401 427.253 121.74 427.253 122.417L427.38 211.094C427.38 211.602 427.168 211.855 426.745 211.855H415.319L392.785 163.994L393.737 210.84C393.737 211.517 393.335 211.855 392.531 211.855Z" fill="white"/>
<path d="M366.442 211.855H351.716C351.293 211.855 351.081 211.644 351.081 211.221L351.208 121.909C351.208 121.571 351.377 121.401 351.716 121.401H366.315C366.654 121.401 366.823 121.571 366.823 121.909L366.95 211.221C366.95 211.644 366.781 211.855 366.442 211.855Z" fill="white"/>
<path d="M316.55 213.125C311.937 213.125 307.684 211.94 303.791 209.57C299.94 207.201 296.851 204.048 294.523 200.112C292.238 196.134 291.096 191.776 291.096 187.036V181.069C291.096 180.604 291.307 180.371 291.73 180.371H306.33C306.669 180.371 306.838 180.604 306.838 181.069V187.036C306.838 189.871 307.79 192.326 309.694 194.399C311.599 196.431 313.884 197.446 316.55 197.446C319.258 197.446 321.564 196.41 323.469 194.336C325.373 192.22 326.325 189.787 326.325 187.036C326.325 183.862 324.252 181.09 320.104 178.721C319.427 178.298 318.539 177.79 317.438 177.197C316.381 176.562 315.111 175.843 313.63 175.039C312.149 174.235 310.71 173.452 309.313 172.69C307.917 171.886 306.563 171.125 305.251 170.405C300.511 167.612 296.978 164.121 294.65 159.932C292.365 155.7 291.223 150.96 291.223 145.713C291.223 140.889 292.408 136.53 294.777 132.637C297.147 128.786 300.236 125.739 304.045 123.496C307.896 121.211 312.064 120.068 316.55 120.068C321.162 120.068 325.394 121.211 329.245 123.496C333.096 125.824 336.164 128.913 338.449 132.764C340.777 136.615 341.94 140.931 341.94 145.713V156.377C341.94 156.715 341.771 156.885 341.433 156.885H326.833C326.494 156.885 326.325 156.715 326.325 156.377L326.198 145.713C326.198 142.666 325.246 140.19 323.342 138.286C321.438 136.382 319.174 135.43 316.55 135.43C313.884 135.43 311.599 136.445 309.694 138.477C307.79 140.508 306.838 142.92 306.838 145.713C306.838 148.548 307.43 150.918 308.615 152.822C309.842 154.727 312.064 156.546 315.28 158.281C315.619 158.451 316.402 158.874 317.629 159.551C318.856 160.228 320.21 160.99 321.691 161.836C323.215 162.64 324.59 163.381 325.817 164.058C327.045 164.692 327.785 165.073 328.039 165.2C332.355 167.612 335.762 170.575 338.259 174.087C340.798 177.599 342.067 181.916 342.067 187.036C342.067 191.987 340.925 196.431 338.64 200.366C336.312 204.302 333.223 207.412 329.372 209.697C325.521 211.982 321.247 213.125 316.55 213.125Z" fill="white"/>
<path d="M488.464 223.146L482.473 235.854H480.082L474.091 223.146H476.3L481.289 234.104L486.277 223.146H488.464Z" fill="white"/>
<path d="M498.749 236C497.701 236 496.76 235.854 495.924 235.562C495.104 235.259 494.459 234.845 493.988 234.323C493.517 233.788 493.275 233.174 493.259 232.481H495.469C495.545 233.077 495.848 233.581 496.38 233.994C496.927 234.396 497.716 234.596 498.749 234.596C499.736 234.596 500.51 234.402 501.072 234.013C501.649 233.612 501.938 233.101 501.938 232.481C501.938 231.995 501.771 231.6 501.437 231.296C501.103 230.992 500.685 230.761 500.184 230.603C499.683 230.445 499.007 230.275 498.157 230.093C497.109 229.874 496.266 229.655 495.628 229.436C495.006 229.217 494.467 228.877 494.011 228.415C493.571 227.941 493.35 227.309 493.35 226.519C493.35 225.826 493.571 225.212 494.011 224.677C494.451 224.143 495.066 223.729 495.856 223.438C496.661 223.146 497.58 223 498.612 223C500.1 223 501.315 223.298 502.257 223.893C503.213 224.489 503.753 225.279 503.874 226.264H501.596C501.52 225.777 501.201 225.352 500.639 224.987C500.078 224.611 499.334 224.422 498.407 224.422C497.542 224.422 496.836 224.604 496.289 224.969C495.742 225.322 495.469 225.82 495.469 226.464C495.469 226.926 495.628 227.303 495.947 227.595C496.281 227.886 496.684 228.111 497.154 228.269C497.64 228.415 498.316 228.585 499.182 228.78C500.229 229.011 501.072 229.242 501.71 229.473C502.348 229.691 502.895 230.038 503.35 230.512C503.806 230.974 504.033 231.606 504.033 232.408C504.033 233.028 503.828 233.612 503.418 234.158C503.008 234.705 502.401 235.149 501.596 235.489C500.791 235.83 499.842 236 498.749 236Z" fill="white"/>
<path d="M516.778 229.309C517.356 229.381 517.879 229.57 518.35 229.874C518.836 230.178 519.216 230.554 519.489 231.004C519.778 231.454 519.922 231.934 519.922 232.445C519.922 233.089 519.717 233.672 519.307 234.195C518.897 234.705 518.297 235.113 517.507 235.417C516.733 235.708 515.814 235.854 514.751 235.854H508.829V223.146H514.523C515.602 223.146 516.52 223.292 517.28 223.583C518.039 223.863 518.608 224.246 518.988 224.732C519.368 225.218 519.557 225.765 519.557 226.373C519.557 227.127 519.299 227.753 518.783 228.251C518.282 228.737 517.614 229.09 516.778 229.309ZM510.902 228.634H514.387C515.359 228.634 516.11 228.452 516.642 228.087C517.173 227.722 517.439 227.218 517.439 226.574C517.439 225.929 517.173 225.425 516.642 225.06C516.11 224.696 515.343 224.513 514.341 224.513H510.902V228.634ZM514.569 234.487C515.602 234.487 516.406 234.292 516.984 233.903C517.561 233.514 517.849 232.973 517.849 232.281C517.849 231.576 517.545 231.022 516.938 230.621C516.331 230.208 515.518 230.001 514.501 230.001H510.902V234.487H514.569Z" fill="white"/>
<path d="M533.806 228.798V230.202H524.717V228.798H533.806Z" fill="white"/>
<path d="M549.353 223.146V224.495H545.025V235.854H542.952V224.495H538.601V223.146H549.353Z" fill="white"/>
<path d="M556.221 224.504V228.752H562.007V230.12H556.221V234.496H562.69V235.863H554.148V223.137H562.69V224.504H556.221Z" fill="white"/>
<path d="M567.485 229.518C567.485 228.278 567.835 227.166 568.533 226.182C569.232 225.185 570.181 224.407 571.38 223.848C572.595 223.289 573.939 223.009 575.412 223.009C577.143 223.009 578.654 223.343 579.945 224.012C581.236 224.68 582.177 225.629 582.77 226.856H580.287C579.846 226.09 579.209 225.501 578.373 225.088C577.553 224.674 576.566 224.468 575.412 224.468C574.304 224.468 573.309 224.674 572.428 225.088C571.547 225.501 570.857 226.09 570.355 226.856C569.854 227.61 569.604 228.497 569.604 229.518C569.604 230.527 569.854 231.414 570.355 232.18C570.857 232.934 571.547 233.517 572.428 233.931C573.309 234.344 574.304 234.55 575.412 234.55C576.566 234.55 577.553 234.35 578.373 233.949C579.209 233.536 579.846 232.946 580.287 232.18H582.77C582.177 233.396 581.236 234.338 579.945 235.006C578.654 235.663 577.143 235.991 575.412 235.991C573.939 235.991 572.595 235.717 571.38 235.17C570.181 234.611 569.232 233.839 568.533 232.855C567.835 231.87 567.485 230.758 567.485 229.518Z" fill="white"/>
<path d="M599.797 223.146V235.854H597.724V230.093H589.638V235.854H587.565V223.146H589.638V228.725H597.724V223.146H599.797Z" fill="white"/>
<path d="M606.005 230.63C605.61 230.63 605.276 230.521 605.002 230.302C604.729 230.083 604.592 229.816 604.592 229.5C604.592 229.184 604.729 228.917 605.002 228.698C605.276 228.479 605.61 228.37 606.005 228.37C606.384 228.37 606.703 228.479 606.961 228.698C607.235 228.917 607.371 229.184 607.371 229.5C607.371 229.816 607.235 230.083 606.961 230.302C606.703 230.521 606.384 230.63 606.005 230.63Z" fill="white"/>
<path d="M612.167 229.518C612.167 228.278 612.516 227.166 613.215 226.182C613.913 225.185 614.862 224.407 616.062 223.848C617.277 223.289 618.621 223.009 620.094 223.009C621.825 223.009 623.336 223.343 624.626 224.012C625.917 224.68 626.859 225.629 627.451 226.856H624.968C624.528 226.09 623.89 225.501 623.055 225.088C622.235 224.674 621.248 224.468 620.094 224.468C618.985 224.468 617.99 224.674 617.11 225.088C616.229 225.501 615.538 226.09 615.037 226.856C614.536 227.61 614.285 228.497 614.285 229.518C614.285 230.527 614.536 231.414 615.037 232.18C615.538 232.934 616.229 233.517 617.11 233.931C617.99 234.344 618.985 234.55 620.094 234.55C621.248 234.55 622.235 234.35 623.055 233.949C623.89 233.536 624.528 232.946 624.968 232.18H627.451C626.859 233.396 625.917 234.338 624.626 235.006C623.336 235.663 621.825 235.991 620.094 235.991C618.621 235.991 617.277 235.717 616.062 235.17C614.862 234.611 613.913 233.839 613.215 232.855C612.516 231.87 612.167 230.758 612.167 229.518Z" fill="white"/>
<path d="M640.219 235.991C638.746 235.991 637.402 235.717 636.187 235.17C634.972 234.611 634.008 233.839 633.294 232.855C632.596 231.858 632.246 230.74 632.246 229.5C632.246 228.26 632.596 227.148 633.294 226.163C634.008 225.167 634.972 224.395 636.187 223.848C637.402 223.289 638.746 223.009 640.219 223.009C641.707 223.009 643.058 223.289 644.273 223.848C645.488 224.395 646.445 225.161 647.143 226.145C647.842 227.13 648.191 228.248 648.191 229.5C648.191 230.752 647.842 231.87 647.143 232.855C646.445 233.839 645.488 234.611 644.273 235.17C643.058 235.717 641.707 235.991 640.219 235.991ZM640.219 234.55C641.327 234.55 642.322 234.344 643.203 233.931C644.099 233.517 644.797 232.928 645.298 232.162C645.815 231.396 646.073 230.509 646.073 229.5C646.073 228.479 645.815 227.592 645.298 226.838C644.797 226.072 644.106 225.483 643.225 225.069C642.345 224.656 641.342 224.45 640.219 224.45C639.095 224.45 638.093 224.656 637.212 225.069C636.331 225.483 635.633 226.072 635.116 226.838C634.615 227.592 634.365 228.479 634.365 229.5C634.365 230.509 634.615 231.396 635.116 232.162C635.633 232.928 636.331 233.517 637.212 233.931C638.108 234.344 639.11 234.55 640.219 234.55Z" fill="white"/>
<path d="M669.091 223.191V235.809H667.018V226.4L661.779 235.809H660.321L655.059 226.382V235.809H652.987V223.191H655.219L661.05 233.621L666.881 223.191H669.091Z" fill="white"/>
<path d="M653.883 88.627C651.08 88.627 648.496 87.9069 646.13 86.4668C643.79 85.0267 641.912 83.1108 640.498 80.7192C639.109 78.3019 638.415 75.6532 638.415 72.7729V69.147C638.415 68.8641 638.544 68.7227 638.801 68.7227H647.673C647.879 68.7227 647.981 68.8641 647.981 69.147V72.7729C647.981 74.4959 648.56 75.9875 649.717 77.2476C650.875 78.4819 652.263 79.0991 653.883 79.0991C655.529 79.0991 656.931 78.4691 658.088 77.209C659.245 75.9232 659.824 74.4445 659.824 72.7729C659.824 70.8442 658.564 69.1598 656.043 67.7197C655.632 67.4626 655.092 67.154 654.423 66.7939C653.78 66.4082 653.009 65.971 652.109 65.4824C651.209 64.9938 650.334 64.5181 649.486 64.0552C648.637 63.5666 647.814 63.1037 647.017 62.6665C644.137 60.9692 641.99 58.8477 640.575 56.3018C639.187 53.7301 638.492 50.8499 638.492 47.6611C638.492 44.7295 639.212 42.0807 640.652 39.7148C642.092 37.3747 643.97 35.5231 646.284 34.1602C648.624 32.7715 651.157 32.0771 653.883 32.0771C656.686 32.0771 659.258 32.7715 661.598 34.1602C663.938 35.5745 665.803 37.4518 667.191 39.792C668.606 42.1322 669.313 44.7552 669.313 47.6611V54.1416C669.313 54.3473 669.21 54.4502 669.004 54.4502H660.132C659.927 54.4502 659.824 54.3473 659.824 54.1416L659.747 47.6611C659.747 45.8096 659.168 44.3052 658.011 43.1479C656.854 41.9907 655.478 41.4121 653.883 41.4121C652.263 41.4121 650.875 42.0293 649.717 43.2637C648.56 44.498 647.981 45.9639 647.981 47.6611C647.981 49.3841 648.341 50.8242 649.062 51.9814C649.807 53.1387 651.157 54.2445 653.112 55.2988C653.318 55.4017 653.793 55.6589 654.539 56.0703C655.285 56.4818 656.108 56.9447 657.008 57.459C657.934 57.9476 658.769 58.3976 659.515 58.8091C660.261 59.1948 660.711 59.4263 660.865 59.5034C663.488 60.9692 665.558 62.7694 667.076 64.9038C668.619 67.0382 669.39 69.6613 669.39 72.7729C669.39 75.7817 668.696 78.4819 667.307 80.8735C665.893 83.2651 664.015 85.1553 661.675 86.5439C659.335 87.9326 656.738 88.627 653.883 88.627Z" fill="white"/>
<path d="M618.973 88.627C616.17 88.627 613.586 87.9069 611.22 86.4668C608.88 85.0267 606.989 83.1108 605.549 80.7192C604.135 78.3019 603.428 75.6532 603.428 72.7729L603.505 47.7383C603.505 44.8066 604.212 42.1707 605.626 39.8306C607.015 37.4647 608.892 35.5745 611.258 34.1602C613.624 32.7201 616.196 32 618.973 32C621.853 32 624.438 32.7072 626.727 34.1216C629.041 35.536 630.893 37.439 632.281 39.8306C633.696 42.1965 634.403 44.8324 634.403 47.7383L634.48 72.7729C634.48 75.6532 633.786 78.2891 632.397 80.6807C630.983 83.098 629.105 85.0267 626.765 86.4668C624.425 87.9069 621.828 88.627 618.973 88.627ZM618.973 79.0991C620.568 79.0991 621.956 78.4562 623.139 77.1704C624.322 75.8589 624.914 74.3931 624.914 72.7729L624.836 47.7383C624.836 45.9896 624.284 44.5109 623.178 43.3022C622.072 42.0936 620.67 41.4893 618.973 41.4893C617.353 41.4893 615.964 42.0807 614.807 43.2637C613.65 44.4466 613.071 45.9382 613.071 47.7383V72.7729C613.071 74.4959 613.65 75.9875 614.807 77.2476C615.964 78.4819 617.353 79.0991 618.973 79.0991Z" fill="white"/>
<path d="M597.103 87.8555H588.153C587.896 87.8555 587.768 87.7269 587.768 87.4697L587.845 33.1958C587.845 32.9901 587.948 32.8872 588.153 32.8872H597.025C597.231 32.8872 597.334 32.9901 597.334 33.1958L597.411 87.4697C597.411 87.7269 597.308 87.8555 597.103 87.8555Z" fill="white"/>
<path d="M558.914 87.8555H549.965C549.759 87.8555 549.656 87.7269 549.656 87.4697L549.811 33.1958C549.811 32.9901 549.913 32.8872 550.119 32.8872H566.089C568.943 32.8872 571.566 33.5815 573.958 34.9702C576.35 36.3589 578.253 38.2233 579.667 40.5635C581.107 42.9036 581.827 45.5524 581.827 48.5098C581.827 50.4385 581.531 52.1872 580.94 53.7559C580.348 55.3245 579.654 56.6489 578.857 57.729C578.085 58.8091 577.378 59.6063 576.735 60.1206C579.59 63.2837 581.017 66.9997 581.017 71.2686L581.094 87.4697C581.094 87.7269 580.966 87.8555 580.708 87.8555H571.759C571.554 87.8555 571.451 87.7783 571.451 87.624V71.2686C571.451 69.3656 570.782 67.7197 569.445 66.3311C568.108 64.9424 566.462 64.248 564.507 64.248H559.3L559.223 87.4697C559.223 87.7269 559.12 87.8555 558.914 87.8555ZM566.089 42.3379H559.3V54.7588H566.089C567.709 54.7588 569.149 54.1545 570.409 52.9458C571.695 51.7371 572.338 50.2585 572.338 48.5098C572.338 46.8382 571.721 45.3981 570.486 44.1895C569.252 42.9551 567.786 42.3379 566.089 42.3379Z" fill="white"/>
<path d="M513.28 87.4697L523.078 33.1958C523.13 32.9901 523.258 32.8872 523.464 32.8872H534.92C535.126 32.8872 535.255 32.9901 535.306 33.1958L544.718 87.4697C544.744 87.7269 544.641 87.8555 544.41 87.8555H535.653C535.396 87.8555 535.255 87.7269 535.229 87.4697L534.38 81.6836H523.618L522.77 87.4697C522.744 87.7269 522.615 87.8555 522.384 87.8555H513.589C513.383 87.8555 513.28 87.7269 513.28 87.4697ZM528.749 51.0557L525.2 73.2358H532.799L529.559 51.0557L529.096 48.124L528.749 51.0557Z" fill="white"/>
<path d="M487.899 87.8555H479.991C479.58 87.8555 479.374 87.6755 479.374 87.3154L479.297 33.5044C479.297 33.0929 479.503 32.8872 479.914 32.8872H487.05L500.397 64.0166L500.011 33.5044C500.011 33.0929 500.243 32.8872 500.706 32.8872H508.536C508.845 32.8872 508.999 33.0929 508.999 33.5044L509.076 87.3926C509.076 87.7012 508.948 87.8555 508.69 87.8555H501.747L488.053 58.7705L488.632 87.2383C488.632 87.6497 488.388 87.8555 487.899 87.8555Z" fill="white"/>
<path d="M472.044 87.8555H463.095C462.838 87.8555 462.709 87.7269 462.709 87.4697L462.786 33.1958C462.786 32.9901 462.889 32.8872 463.095 32.8872H471.967C472.173 32.8872 472.275 32.9901 472.275 33.1958L472.353 87.4697C472.353 87.7269 472.25 87.8555 472.044 87.8555Z" fill="white"/>
<path d="M433.855 87.8555H424.906C424.701 87.8555 424.598 87.7269 424.598 87.4697L424.752 33.1958C424.752 32.9901 424.855 32.8872 425.061 32.8872H441.03C443.885 32.8872 446.508 33.5815 448.899 34.9702C451.291 36.3589 453.194 38.2233 454.608 40.5635C456.049 42.9036 456.769 45.5524 456.769 48.5098C456.769 50.4385 456.473 52.1872 455.881 53.7559C455.29 55.3245 454.596 56.6489 453.798 57.729C453.027 58.8091 452.32 59.6063 451.677 60.1206C454.531 63.2837 455.958 66.9997 455.958 71.2686L456.036 87.4697C456.036 87.7269 455.907 87.8555 455.65 87.8555H446.701C446.495 87.8555 446.392 87.7783 446.392 87.624V71.2686C446.392 69.3656 445.723 67.7197 444.386 66.3311C443.049 64.9424 441.403 64.248 439.449 64.248H434.241L434.164 87.4697C434.164 87.7269 434.061 87.8555 433.855 87.8555ZM441.03 42.3379H434.241V54.7588H441.03C442.65 54.7588 444.09 54.1545 445.351 52.9458C446.636 51.7371 447.279 50.2585 447.279 48.5098C447.279 46.8382 446.662 45.3981 445.428 44.1895C444.193 42.9551 442.728 42.3379 441.03 42.3379Z" fill="white"/>
<path d="M417.269 87.8555H391.732C391.527 87.8555 391.424 87.7269 391.424 87.4697L391.501 33.1958C391.501 32.9901 391.604 32.8872 391.81 32.8872H417.191C417.397 32.8872 417.5 33.0158 417.5 33.2729V42.1064C417.5 42.3122 417.397 42.415 417.191 42.415H400.99V54.7588H417.191C417.397 54.7588 417.5 54.8617 417.5 55.0674L417.577 64.0166C417.577 64.2223 417.474 64.3252 417.269 64.3252H400.99V78.1348H417.269C417.474 78.1348 417.577 78.2633 417.577 78.5205V87.5469C417.577 87.7526 417.474 87.8555 417.269 87.8555Z" fill="white"/>
<path d="M376.65 87.8555H367.74C367.508 87.8555 367.393 87.7269 367.393 87.4697V42.415H357.132C356.875 42.415 356.746 42.2865 356.746 42.0293L356.823 33.1958C356.823 32.9901 356.926 32.8872 357.132 32.8872H387.143C387.425 32.8872 387.567 32.9901 387.567 33.1958V42.0293C387.567 42.2865 387.464 42.415 387.258 42.415H376.882L376.959 87.4697C376.959 87.7269 376.856 87.8555 376.65 87.8555Z" fill="white"/>
<path d="M352.464 87.8555H326.928C326.722 87.8555 326.619 87.7269 326.619 87.4697L326.696 33.1958C326.696 32.9901 326.799 32.8872 327.005 32.8872H352.387C352.592 32.8872 352.695 33.0158 352.695 33.2729V42.1064C352.695 42.3122 352.592 42.415 352.387 42.415H336.186V54.7588H352.387C352.592 54.7588 352.695 54.8617 352.695 55.0674L352.772 64.0166C352.772 64.2223 352.67 64.3252 352.464 64.3252H336.186V78.1348H352.464C352.67 78.1348 352.772 78.2633 352.772 78.5205V87.5469C352.772 87.7526 352.67 87.8555 352.464 87.8555Z" fill="white"/>
<path d="M310.882 87.8555H301.315C301.084 87.8555 300.955 87.7269 300.929 87.4697L290.013 33.1958C289.961 32.9901 290.064 32.8872 290.321 32.8872H299.271C299.476 32.8872 299.605 32.9901 299.656 33.1958L306.137 69.3784L312.463 33.1958C312.514 32.9901 312.643 32.8872 312.849 32.8872H321.682C321.965 32.8872 322.068 32.9901 321.991 33.1958L311.267 87.4697C311.242 87.7269 311.113 87.8555 310.882 87.8555Z" fill="white"/>
</svg>
